<?xml version="1.0" standalone="no"?>
<!DOCTYPE svg PUBLIC "-//W3C//DTD SVG 20010904//EN"
 "http://www.w3.org/TR/2001/REC-SVG-20010904/DTD/svg10.dtd">
<svg version="1.0" xmlns="http://www.w3.org/2000/svg"
 width="1024.000000pt" height="1024.000000pt" viewBox="0 0 1024.000000 1024.000000"
 preserveAspectRatio="xMidYMid meet">

<g transform="translate(0.000000,1024.000000) scale(0.100000,-0.100000)"
fill="#000000" stroke="none">
<path d="M703 9591 c-23 -11 -50 -32 -60 -47 -17 -27 -18 -176 -18 -4199 0
-4079 0 -4171 19 -4198 37 -55 50 -57 354 -57 l280 0 105 243 c58 133 196 449
307 702 111 253 260 593 330 755 70 162 166 383 213 490 47 107 127 290 177
405 233 531 347 790 460 1045 149 336 449 1016 462 1049 9 24 10 22 34 -30 40
-84 285 -630 342 -759 28 -63 118 -266 201 -450 l151 -335 167 -1 c93 0 171 1
175 3 3 2 -2 20 -12 41 -10 20 -66 144 -124 275 -113 254 -225 503 -487 1082
-89 198 -199 443 -244 545 -163 369 -188 421 -196 413 -5 -5 -186 -411 -402
-903 -217 -492 -438 -994 -492 -1115 -53 -121 -151 -344 -217 -495 -66 -151
-135 -309 -153 -350 -107 -241 -417 -948 -498 -1135 -52 -121 -154 -355 -227
-520 -73 -165 -166 -376 -206 -470 l-74 -170 -70 -3 -70 -3 0 3951 0 3950
4195 0 4195 0 0 -3950 0 -3950 -907 0 -907 0 112 67 c62 38 161 104 220 148
120 89 353 316 456 445 265 332 449 753 529 1210 29 171 32 613 4 790 -73 469
-274 929 -563 1290 -104 129 -276 296 -404 391 -356 266 -685 400 -1187 485
-81 14 -196 18 -665 21 l-568 4 0 -2580 0 -2581 160 0 160 0 0 2425 0 2425
138 -1 c671 -3 917 -32 1219 -145 183 -68 417 -197 567 -312 201 -154 416
-408 549 -649 204 -370 297 -728 297 -1141 0 -484 -116 -894 -358 -1267 -336
-517 -867 -860 -1517 -980 -103 -19 -311 -45 -357 -45 -4 0 -8 -70 -8 -155 l0
-155 1608 2 c1587 3 1607 3 1641 23 19 11 43 33 55 48 l21 28 0 4157 c0 4139
0 4157 -20 4191 -11 18 -36 42 -55 52 -34 18 -161 19 -4415 19 -4277 0 -4381
-1 -4422 -19z"/>
<path d="M3824 3801 c-816 -5 -1014 -9 -1027 -19 -27 -22 -30 -67 -9 -114 23
-52 262 -353 912 -1148 47 -58 93 -116 103 -130 15 -22 17 -70 17 -536 l0
-512 -208 -4 c-229 -3 -246 -7 -278 -69 -20 -40 -10 -104 21 -135 43 -43 77
-45 608 -42 485 3 503 4 537 23 49 29 69 87 49 141 -8 22 -29 48 -48 61 -33
22 -42 23 -242 23 l-209 0 0 509 0 510 82 103 c45 57 226 281 403 498 452 556
519 640 549 684 35 52 35 104 0 137 -31 29 90 27 -1260 20z m910 -219 c2 -4
-25 -43 -61 -87 -36 -44 -181 -222 -321 -395 -141 -173 -290 -355 -331 -404
l-76 -88 -45 49 c-41 45 -247 295 -613 747 l-139 171 54 6 c81 9 1526 10 1532
1z"/>
</g>
</svg>
